<?xml version="1.0" encoding="utf-8"?>
<!-- Created with Inkscape (http://www.inkscape.org/) -->
<svg width="512" height="512" version="1.2" viewBox="0 0 512 512" baseProfile="tiny-ps" xmlns="http://www.w3.org/2000/svg">
  <title>navicon1</title>
  <g stroke-width=".7307">
    <path d="m1.724 256v-255.02h508.55v510.05h-508.55z" fill="#f9fbfa" />
    <path d="m248.34 510.52c-63.817-1.9948-122.72-26.951-168.07-71.209-15.578-15.204-25.977-27.702-36.527-43.907-22.016-33.812-35.044-70.442-39.95-112.33-1.2357-10.549-1.2454-43.75-0.015616-53.786 2.4127-19.69 6.4701-38.121 12.001-54.517 32.406-96.067 117.88-163.5 218.46-172.34 11.116-0.97746 33.449-0.96901 44.5 0.016845 95.604 8.5287 177.91 70.16 213.54 159.89 20.6 51.889 23.411 110.38 7.9055 164.44-20.703 72.182-72.568 131.77-141.3 162.34-26.56 11.814-58.91 19.701-85.367 20.813-5.2169 0.21923-11.619 0.48567-14.228 0.59207-2.6084 0.1064-7.5334 0.10623-10.944-3.9e-4zm35.752-12.375c46.068-5.215 87.995-22.958 125.86-53.262 9.6432-7.7176 27.687-25.893 35.68-35.941 35.255-44.318 53.669-96.648 53.69-152.58 8e-3 -22.468-2.3947-41.976-7.6166-61.829-11.569-43.983-33.302-81.331-65.798-113.07-12.342-12.054-21.286-19.31-35.642-28.916-31.305-20.946-66.686-33.946-105.81-38.876-13.688-1.725-42.75-1.7481-56.249-0.044847-42.764 5.3959-81.173 20.446-114.67 44.93-46.282 33.831-79.246 82.556-93.198 137.76-2.3794 9.4144-5.1093 25.546-6.1888 36.573-1.0367 10.588-1.0577 35.505-0.03873 45.891 4.601 46.894 21.952 90.321 51.184 128.11 7.6868 9.9364 28.575 31.09 38.336 38.823 52.498 41.592 115.21 59.812 180.46 52.426zm-194.64-118.79c-13.028-3.316-15.227-21.346-3.321-27.225 5.5701-2.7505 15.761-2.1142 17.913 1.1186 0.7534 1.1317 0.68925 4.6624-0.0936 5.1477-0.35857 0.22226-2.0415-0.0876-3.7399-0.68859-9.1896-3.2518-16.034 1.7469-13.797 10.077 1.0731 3.997 4.2384 5.8618 9.1688 5.4017 2.0617-0.19239 4.7763-0.88288 6.0326-1.5344 1.9666-1.02 2.3405-1.0371 2.6902-0.12318 0.90701 2.3706-0.0769 5.1437-2.2812 6.4297-2.6106 1.523-9.1993 2.2548-12.572 1.3964zm28.086-0.29419c-3.5242-1.0994-7.4792-4.287-9.0441-7.2891-1.6118-3.0922-1.6225-10.37-0.0198-13.444 4.5863-8.797 17.627-10.706 24.942-3.6502 8.342 8.0458 4.761 21.445-6.5601 24.547-3.5934 0.98445-5.7614 0.94648-9.3185-0.16324zm10.121-8.1031c2.1175-2.1237 2.4807-2.9917 2.4807-5.9274s-0.36326-3.8037-2.4807-5.9274c-1.9273-1.9329-3.083-2.488-5.1804-2.488s-3.2531 0.55509-5.1804 2.488c-2.1175 2.1237-2.4807 2.9917-2.4807 5.9274s0.36326 3.8037 2.4807 5.9274c1.9273 1.9329 3.083 2.488 5.1804 2.488s3.2531-0.5551 5.1804-2.488zm53.19 8.4292c-4.9494-1.2765-6.8484-3.4771-5.8159-6.7398 0.3181-1.0052 0.89838-1.3955 1.6908-1.1372 0.66358 0.21627 2.7837 0.9498 4.7113 1.6301 2.7462 0.96918 3.8911 1.0603 5.2898 0.42114 3.0918-1.4129 2.1163-2.928-3.5537-5.5195-6.249-2.8561-8.5242-5.3314-8.5242-9.2739 0-5.6004 6.0912-9.3896 13.311-8.2805 4.9738 0.76402 7.1185 2.1619 7.1185 4.6398 0 2.9239-0.79964 3.1976-5.1613 1.7668-2.6904-0.8826-4.3094-1.0409-5.6845-0.55588-3.2239 1.1371-2.2374 2.6863 3.4625 5.4378 6.6804 3.2248 8.1203 4.8931 8.0897 9.3729-0.0249 3.6416-0.75083 5.0198-3.6249 6.882-2.1818 1.4137-8.2603 2.1426-11.309 1.3563zm28.18-0.0537c-3.2243-0.80898-5.9533-2.9-7.7085-5.9065-1.1062-1.8948-1.4861-4.2364-1.7318-10.673-0.43038-11.277-0.20262-11.993 3.8144-11.993 2.237 0 3.3238 0.34614 3.6342 1.1575 0.24358 0.63663 0.44288 4.9325 0.44288 9.5463 0 7.931 0.0977 8.4869 1.7909 10.185 2.1732 2.1796 5.3966 2.3449 7.7958 0.39974 1.6158-1.3099 1.7451-2.0015 2.0873-11.16l0.36482-9.7631h6.5667l0.20161 10.291c0.18958 9.6772 0.10239 10.439-1.4617 12.767-0.91484 1.3615-2.6472 3.0492-3.8498 3.7505-2.6525 1.5468-8.587 2.2415-11.947 1.3986zm124.77-0.39747c-3.5243-1.1024-6.9027-3.953-8.6748-7.3194-1.5433-2.9318-1.5157-10.286 0.0499-13.289 3.7739-7.2389 14.017-10.107 22.942-6.4244 2.0364 0.84024 2.3713 1.3394 2.3713 3.5338 0 1.4054-0.28733 2.7335-0.63852 2.9512-0.35119 0.21768-2.1831-0.13206-4.071-0.7772-7.9106-2.7033-14.261 0.63835-14.261 7.5044 0 2.8507 0.3792 3.7349 2.5241 5.8862 2.2129 2.2194 2.9101 2.5036 5.6546 2.3051 2.4818-0.17954 3.1737-0.52972 3.339-1.69 0.13497-0.94709-0.37999-1.7218-1.4593-2.1953-1.2046-0.52852-1.6678-1.3415-1.6678-2.9271v-2.1953h10.944l0.21174 5.595c0.19918 5.2636 0.10017 5.683-1.6713 7.0806-1.8681 1.4738-7.714 3.1027-10.798 3.0086-0.88317-0.0269-3.0416-0.49809-4.7965-1.047zm-191.64-0.53268c-0.20659-0.53995-0.28567-6.898-0.17574-14.129l0.19989-13.147 2.9939-0.21978c2.9569-0.21705 3.0741-0.12901 9.4852 7.122 3.5702 4.038 6.8899 7.3475 7.377 7.3546 0.62068 9e-3 0.94809-2.1216 1.0944-7.122l0.20883-7.1348h6.5667v27.807l-2.6565 0.22235c-2.5374 0.2124-2.9582-0.11553-9.3903-7.3178-3.7036-4.1471-7.1752-7.6443-7.7147-7.7717-0.76305-0.18013-1.0272 1.445-1.1894 7.3178l-0.20847 7.5493-3.1076 0.22534c-2.0946 0.15189-3.23-0.0947-3.4832-0.75637zm89.737-0.0204c-0.20229-0.52871-0.27785-6.8776-0.16792-14.109l0.19989-13.147h6.5667l0.17819 9.5131c0.2536 13.539-0.17053 12.703 6.5771 12.958l5.6484 0.21362v5.1224l-9.3173 0.20492c-7.1694 0.15767-9.4021-0.0167-9.6851-0.75638zm27.013 3e-3c-0.18373-0.5031-0.41967-5.5249-0.52432-11.16l-0.19029-10.245-3.7712-0.21912c-4.2879-0.24914-5.732-1.4448-5.0477-4.1792l0.4645-1.8561 25.136 0.4v5.1224l-8.3908 0.43893v10.148c0 5.5817-0.19929 10.669-0.44288 11.306-0.55039 1.4385-6.721 1.6456-7.2332 0.2428zm19.807-0.20646c-0.68389-1.7874-0.52895-25.439 0.17393-26.551 0.39314-0.62179 1.7444-0.88068 3.8194-0.73178l3.211 0.23013v27.807l-3.3738 0.21927c-2.5836 0.16792-3.4808-0.0604-3.8306-0.97457zm13.017 0.22426c-0.2066-0.53994-0.28568-6.898-0.17574-14.129l0.19989-13.148 2.9673-0.21847c2.9096-0.21422 3.0988-0.0755 9.7326 7.1348 3.7209 4.0443 7.0525 7.3533 7.4035 7.3533s0.73218-3.2107 0.84704-7.1348l0.20883-7.1348h6.5667v27.807l-2.6364 0.22115c-2.5265 0.21193-2.9344-0.11696-9.7885-7.8917-3.9337-4.462-7.4132-7.851-7.7323-7.5309-0.31911 0.32004-0.67512 3.8713-0.79113 7.8917l-0.21093 7.3098-3.1076 0.22534c-2.0946 0.15189-3.23-0.0947-3.4832-0.75637zm75.262-0.23937c-0.58295-1.5236-0.59013-24.724-8e-3 -26.245 0.31044-0.81138 1.3972-1.1575 3.6342-1.1575 3.9203 0 3.894-0.0815 4.1354 12.806l0.17819 9.5131 10.944 0.73177v5.1224l-9.2166 0.20417c-7.9224 0.17549-9.2799 0.0386-9.6676-0.97457zm22.5 0.21894c-0.20229-0.52871-0.27785-6.8776-0.16792-14.109l0.19989-13.148h6.5667l0.17819 9.5131c0.2536 13.539-0.17053 12.703 6.5771 12.958l5.6484 0.21362v5.1224l-9.3173 0.20492c-7.1694 0.15767-9.4021-0.0167-9.6851-0.75638zm22.626 0.0204c-0.20659-0.53995-0.28567-6.898-0.17574-14.129l0.19989-13.148 5.837-0.22343c7.4735-0.28607 10.022 0.21309 12.722 2.492 2.7276 2.3019 3.4637 5.7281 1.9904 9.2646-1.4352 3.4451-3.7085 4.8405-8.9492 5.4933l-4.3041 0.53615-0.36481 5.1224-0.36482 5.1224-3.1076 0.22534c-2.0946 0.15189-3.23-0.0947-3.4832-0.75637zm12.111-16.691c3.0412-1.6327 1.1736-5.097-2.7476-5.097-2.2424 0-2.4078 0.16754-2.4078 2.4392 0 1.3416 0.21889 2.6588 0.48642 2.9271 0.72365 0.72578 3.0665 0.59046 4.669-0.26967zm-86.369-29.034c-1.5183-2.5319-45.742-102.12-45.742-103.01 0-1.0111 1.6476-1.1256 13.681-0.9505l13.681 0.1991 12.167 28.539c6.6921 15.697 12.567 28.539 13.055 28.539s6.7036-12.843 13.812-28.539l12.925-28.539 13.619-0.19916c10.562-0.15444 13.7 0.0118 13.979 0.74073 0.19779 0.51693-10.754 23.987-24.337 52.155l-24.697 51.215-5.8982 0.21156c-3.244 0.11635-6.054-0.0483-6.2444-0.36589zm-258.45-1.1086c-0.19534-0.51286-0.27018-23.819-0.16631-51.791l0.18886-50.858 10.944-0.18223c6.0194-0.10022 11.289 0.0644 11.71 0.36589 0.42089 0.30146 12.733 13.884 27.361 30.183l26.596 29.634 0.38533-30c0.21194-16.5 0.45819-30.09 0.54723-30.201 0.089-0.11013 5.8256-0.11013 12.748 0l12.586 0.20022v103.18l-20.101 0.40742-2.5274-2.7649c-1.3901-1.5207-13.941-15.667-27.89-31.436-13.95-15.769-25.691-28.584-26.092-28.479-0.46463 0.12229-0.86212 11.465-1.0944 31.232l-0.36482 31.04-12.237 0.20071c-9.39 0.15401-12.32-0.0163-12.593-0.73178zm110.56-0.24477c0-1.2194 42.769-100.24 43.992-101.86 0.51393-0.67771 4.4473-0.91472 15.18-0.91472 14.23 0 14.505 0.0292 15.522 1.6465 1.4813 2.3556 39.128 99.603 39.128 101.07 0 1.107-1.2958 1.2047-13.596 1.0246l-13.596-0.19909-2.4628-6.586c-1.3545-3.6223-2.9793-7.9855-3.6105-9.696l-1.1477-3.11h-44.121l-7.9473 19.392-13.67 0.19909c-12.143 0.17684-13.67 0.0679-13.67-0.97493zm72.233-37.938c0-0.52344-12.523-34.428-13.102-35.473-0.40113-0.72347-0.70493-0.77231-1.0744-0.17274-0.81286 1.3191-14.279 34.629-14.279 35.32 0 0.34132 6.4025 0.62057 14.228 0.62057s14.228-0.1329 14.228-0.29533zm145.54 38.182c-0.19517-0.51242-0.26987-23.818-0.166-51.79l0.18886-50.858h26.267v103.18l-12.967 0.1999c-9.9748 0.15376-13.049-0.0151-13.322-0.73178zm-262.01-128.62c-4.9046-1.1113-9.0216-5.9342-9.0216-10.568 0-2.5729 2.1831-6.7808 12.743-24.563 4.9-8.2508 10.29-17.389 11.978-20.307 1.6879-2.918 3.3895-5.3054 3.7812-5.3054 0.9836 0 6.866 9.2587 9.5856 15.088 2.8499 6.1079 2.8877 5.9801-6.7355 22.745-4.1123 7.1642-8.2596 14.414-9.2162 16.111-3.0656 5.4379-7.9492 7.9698-13.115 6.7994zm64.306-0.12433c-5.2337-2.8903-7.53-6.3595-25.594-38.666-11.772-21.054-13.751-25.04-14.02-28.237-0.54504-6.4941 3.5011-11.271 9.5524-11.277 5.7578-6e-3 10.425 4.4444 16.909 16.123 6.8708 12.375 14.413 25.119 15.698 26.526 1.1459 1.2541 1.2402 1.2541 2.3524 0 0.93739-1.057 10.803-17.872 21.509-36.66 3.3159-5.8192 9.2504-7.6349 14.144-4.3274 3.7083 2.5064 5.7799 6.0405 5.7799 9.8606 0 2.894-1.7196 6.2982-15.37 30.426-8.4534 14.942-16.535 28.7-17.959 30.573-4.1291 5.4304-9.3225 7.6901-13.003 5.6577zm29.747-0.23453c-4.341-1.8927-6.9146-8.2906-5.304-13.185 1.1138-3.3847 28.329-51.199 32.555-57.195 6.8193-9.6762 13.748-10.062 20.205-1.1248 1.3658 1.8905 9.4617 15.589 17.991 30.441l15.508 27.004-0.314 3.7976c-0.39469 4.7736-2.4708 7.7914-6.8089 9.8977-3.8588 1.8735-6.9346 1.5867-9.9919-0.93185-1.0973-0.90392-7.0407-10.535-13.208-21.401-8.6376-15.221-11.572-19.812-12.78-19.992-0.86209-0.12861-1.5674 0.0605-1.5674 0.42018 0 0.35972-2.3991 4.7458-5.3313 9.7469s-7.235 12.551-9.5617 16.777c-5.1398 9.3355-8.406 13.476-12.137 15.385-3.2987 1.6878-5.9724 1.7922-9.2544 0.36123zm119.91-2.6386c-4.1118-3.2438-4.0968-3.1115-4.0968-36.158 0-33.047-0.015-32.914 4.0968-36.158 2.6913-2.1232 8.8152-2.1232 11.506 0 4.1118 3.2438 4.0968 3.1115 4.0968 36.158 0 33.047 0.015 32.914-4.0968 36.158-1.4036 1.1073-2.9881 1.5282-5.7532 1.5282-2.7652 0-4.3497-0.42088-5.7532-1.5282zm-38.924-18.148c-1.2842-1.9675-3.6922-6.1618-5.351-9.3207-2.4407-4.648-2.9464-6.2644-2.6509-8.474 0.22374-1.673 3.1684-7.4866 7.6033-15.011 3.981-6.7542 8.3781-14.252 9.7713-16.663 3.1706-5.4855 6.2671-7.6927 10.787-7.689 6.16 5e-3 11.011 4.7074 11.016 10.679 2e-3 2.4718-1.3186 5.2989-7.5219 16.099-16.436 28.616-19.656 33.956-20.471 33.956-0.46655 0-1.899-1.6097-3.1832-3.5772zm39.761-64.892c-2.6062-1.4183-4.2045-4.618-4.2045-8.4173 0-2.5667 0.44851-3.4994 2.8327-5.8905 2.4929-2.5002 3.2471-2.841 6.2877-2.841 3.0406 0 3.7948 0.3408 6.2877 2.841 2.3842 2.3912 2.8327 3.3239 2.8327 5.8905 0 5.9199-3.571 9.5937-9.2666 9.5335-1.5248-0.0161-3.6711-0.51841-4.7697-1.1162zm22.792-12.506c-1.9761-0.79121-4.3778-3.4081-4.3778-4.7701 0-1.8327 1.2123-1.6745 3.7812 0.49345 2.4768 2.0902 5.0784 2.3523 6.7463 0.6795 2.1295-2.1358 1.1-3.3576-3.9608-4.7008-4.1639-1.1051-5.837-2.6069-5.837-5.2393 0-3.1154 2.3073-5.009 6.1035-5.009 3.341 0 7.0299 2.1172 7.0299 4.0347 0 1.9077-1.4996 1.9156-3.7462 0.01968-1.5769-1.3308-2.7267-1.7628-3.8156-1.4337-4.1915 1.2667-3.3138 3.4561 2.0074 5.0076 6.0635 1.7679 7.8268 5.1268 4.6412 8.8412-1.6592 1.9346-6.1873 3.0317-8.572 2.0769zm14.022-9.1581c0.20471-8.9949 0.21069-9.0223 1.9677-9.0223 1.5531 0 1.9918 0.68971 3.6947 5.8088 1.0628 3.1948 2.2858 5.9269 2.7177 6.0714 0.43195 0.14441 1.7694-2.4695 2.9721-5.8088 1.9-5.2754 2.4127-6.0714 3.9106-6.0714 1.7164 0 1.7239 0.03849 1.7239 8.7813 0 7.3178-0.18241 8.7813-1.0944 8.7813-0.83293 0-1.1464-1.0928-1.3117-4.5736-0.11947-2.5155-0.50351-4.5736-0.8534-4.5736s-1.1985 1.7288-1.8858 3.8418c-1.43 4.3963-2.2668 5.6713-3.7225 5.6713-0.5654 0-1.1706-0.41162-1.3448-0.91472-0.17426-0.50309-1.0669-2.8905-1.9836-5.3054l-1.6668-4.3907-0.36481 5.1157c-0.29614 4.1527-0.60949 5.1623-1.6646 5.3635-1.1985 0.22845-1.2838-0.45542-1.0944-8.7746z" fill="#9fca53" />
    <path d="m248.34 510.52c-63.817-1.9948-122.72-26.951-168.07-71.209-15.578-15.204-25.977-27.702-36.527-43.907-22.016-33.812-35.044-70.442-39.95-112.33-1.2357-10.549-1.2454-43.75-0.015616-53.786 4.0835-33.325 12.864-62.774 26.183-87.813 6.6793-12.557 14.825-25.088 16.855-25.932 0.52246-0.2171 0.75959-0.0858 0.52695 0.29169-0.85101 1.381 4.4813 1.686 6.4827 0.37076 1.5999-1.0514 1.0733 0.21686-3.2384 7.7995-21.829 38.388-32.722 70.943-36.437 108.89-1.0367 10.588-1.0577 35.505-0.03873 45.891 4.601 46.894 21.952 90.321 51.184 128.11 7.6868 9.9364 28.575 31.09 38.336 38.823 37.557 29.755 78.365 46.86 125.37 52.55 13.868 1.6789 40.863 1.6782 54.722-1e-3 47.458-5.7513 88.279-23.016 126.23-53.385 9.6432-7.7176 27.687-25.893 35.68-35.941 29.863-37.541 47.594-80.753 52.619-128.24 1.2525-11.837 1.4005-35.096 0.29917-47.024-2.943-31.875-11.909-62.181-27.817-94.03-3.2157-6.4378-5.9484-12.235-6.0727-12.882-0.17459-0.90924 0.34745-1.16 2.2926-1.101 1.3853 0.042 2.7893 0.51609 3.1202 1.0536 0.74216 1.2058 1.5671 1.2487 2.264 0.11781 0.76252-1.2374 6.7445 8.0795 12.452 19.395 11.989 23.766 19.361 48.457 23.377 78.3 2.1002 15.604 2.2914 44.569 0.39838 60.372-7.7445 64.652-38.315 122.48-86.939 164.47-41.372 35.722-96.84 58.399-148.11 60.554-5.2169 0.21923-11.619 0.48566-14.228 0.59207-2.6084 0.1064-7.5334 0.10623-10.944-3.9e-4zm-158.89-131.16c-13.028-3.316-15.227-21.346-3.321-27.225 5.5701-2.7505 15.761-2.1142 17.913 1.1186 0.7534 1.1317 0.68925 4.6624-0.0936 5.1477-0.35857 0.22226-2.0415-0.0876-3.7399-0.68859-9.1896-3.2518-16.034 1.7469-13.797 10.077 1.0731 3.997 4.2384 5.8618 9.1688 5.4017 2.0617-0.19239 4.7763-0.88288 6.0326-1.5344 1.9666-1.02 2.3405-1.0371 2.6902-0.12318 0.90701 2.3706-0.0769 5.1437-2.2812 6.4297-2.6106 1.523-9.1993 2.2548-12.572 1.3964zm28.086-0.29419c-3.5242-1.0994-7.4792-4.287-9.0441-7.2891-1.6118-3.0922-1.6225-10.37-0.0198-13.444 4.5863-8.797 17.627-10.706 24.942-3.6502 8.342 8.0458 4.761 21.445-6.5601 24.547-3.5934 0.98445-5.7614 0.94648-9.3185-0.16324zm10.121-8.1031c2.1175-2.1237 2.4807-2.9917 2.4807-5.9274s-0.36326-3.8037-2.4807-5.9274c-1.9273-1.9329-3.083-2.488-5.1804-2.488s-3.2531 0.55509-5.1804 2.488c-2.1175 2.1237-2.4807 2.9917-2.4807 5.9274s0.36326 3.8037 2.4807 5.9274c1.9273 1.9329 3.083 2.488 5.1804 2.488s3.2531-0.5551 5.1804-2.488zm53.19 8.4292c-4.9494-1.2765-6.8484-3.4771-5.8159-6.7398 0.3181-1.0052 0.89838-1.3955 1.6908-1.1372 0.66358 0.21627 2.7837 0.9498 4.7113 1.6301 2.7462 0.96918 3.8911 1.0603 5.2898 0.42114 3.0918-1.4129 2.1163-2.928-3.5537-5.5195-6.249-2.8561-8.5242-5.3314-8.5242-9.2739 0-5.6004 6.0912-9.3896 13.311-8.2805 4.9738 0.76402 7.1185 2.1619 7.1185 4.6398 0 2.9239-0.79964 3.1976-5.1613 1.7668-2.6904-0.8826-4.3094-1.0409-5.6845-0.55588-3.2239 1.1371-2.2374 2.6863 3.4625 5.4378 6.6804 3.2248 8.1203 4.8931 8.0897 9.3729-0.0249 3.6416-0.75083 5.0198-3.6249 6.882-2.1818 1.4137-8.2603 2.1426-11.309 1.3563zm28.18-0.0537c-3.2243-0.80898-5.9533-2.9-7.7085-5.9065-1.1062-1.8948-1.4861-4.2364-1.7318-10.673-0.43038-11.277-0.20262-11.993 3.8144-11.993 2.237 0 3.3238 0.34614 3.6342 1.1575 0.24358 0.63663 0.44288 4.9325 0.44288 9.5463 0 7.931 0.0977 8.4869 1.7909 10.185 2.1732 2.1796 5.3966 2.3449 7.7958 0.39974 1.6158-1.3099 1.7451-2.0015 2.0873-11.16l0.36482-9.7631h6.5667l0.20161 10.291c0.18958 9.6772 0.10239 10.439-1.4617 12.767-0.91484 1.3615-2.6472 3.0492-3.8498 3.7505-2.6525 1.5468-8.587 2.2415-11.947 1.3986zm124.77-0.39747c-3.5243-1.1024-6.9027-3.953-8.6748-7.3194-1.5433-2.9318-1.5157-10.286 0.0499-13.289 3.7739-7.2389 14.017-10.107 22.942-6.4244 2.0364 0.84024 2.3713 1.3394 2.3713 3.5338 0 1.4054-0.28733 2.7335-0.63852 2.9512-0.35119 0.21768-2.1831-0.13206-4.071-0.7772-7.9106-2.7033-14.261 0.63835-14.261 7.5044 0 2.8507 0.3792 3.7349 2.5241 5.8862 2.2129 2.2194 2.9101 2.5036 5.6546 2.3051 2.4818-0.17954 3.1737-0.52972 3.339-1.69 0.13497-0.94709-0.37999-1.7218-1.4593-2.1953-1.2046-0.52852-1.6678-1.3415-1.6678-2.9271v-2.1953h10.944l0.21174 5.595c0.19918 5.2636 0.10017 5.683-1.6713 7.0806-1.8681 1.4738-7.714 3.1027-10.798 3.0086-0.88317-0.0269-3.0416-0.49809-4.7965-1.047zm-191.64-0.53268c-0.20659-0.53995-0.28567-6.898-0.17574-14.129l0.19989-13.147 2.9939-0.21978c2.9569-0.21705 3.0741-0.12901 9.4852 7.122 3.5702 4.038 6.8899 7.3475 7.377 7.3546 0.62068 9e-3 0.94809-2.1216 1.0944-7.122l0.20883-7.1348h6.5667v27.807l-2.6565 0.22235c-2.5374 0.2124-2.9582-0.11553-9.3903-7.3178-3.7036-4.1471-7.1752-7.6443-7.7147-7.7717-0.76305-0.18013-1.0272 1.445-1.1894 7.3178l-0.20847 7.5493-3.1076 0.22534c-2.0946 0.15189-3.23-0.0947-3.4832-0.75637zm89.737-0.0204c-0.20229-0.52871-0.27785-6.8776-0.16792-14.109l0.19989-13.147h6.5667l0.17819 9.5131c0.2536 13.539-0.17053 12.703 6.5771 12.958l5.6484 0.21362v5.1224l-9.3173 0.20492c-7.1694 0.15767-9.4021-0.0167-9.6851-0.75638zm27.013 3e-3c-0.18373-0.5031-0.41967-5.5249-0.52432-11.16l-0.19029-10.245-3.7712-0.21912c-4.2879-0.24914-5.732-1.4448-5.0477-4.1792l0.4645-1.8561 25.136 0.4v5.1224l-8.3908 0.43893v10.148c0 5.5817-0.19929 10.669-0.44288 11.306-0.55039 1.4385-6.721 1.6456-7.2332 0.2428zm19.807-0.20646c-0.68389-1.7874-0.52895-25.439 0.17393-26.551 0.39314-0.62179 1.7444-0.88068 3.8194-0.73178l3.211 0.23013v27.807l-3.3738 0.21927c-2.5836 0.16792-3.4808-0.0604-3.8306-0.97457zm13.017 0.22426c-0.2066-0.53994-0.28568-6.898-0.17574-14.129l0.19989-13.148 2.9673-0.21847c2.9096-0.21422 3.0988-0.0755 9.7326 7.1348 3.7209 4.0443 7.0525 7.3533 7.4035 7.3533s0.73218-3.2107 0.84704-7.1348l0.20883-7.1348h6.5667v27.807l-2.6364 0.22115c-2.5265 0.21193-2.9344-0.11696-9.7885-7.8917-3.9337-4.462-7.4132-7.851-7.7323-7.5309-0.31911 0.32004-0.67512 3.8713-0.79113 7.8917l-0.21093 7.3098-3.1076 0.22534c-2.0946 0.15189-3.23-0.0947-3.4832-0.75637zm75.262-0.23937c-0.58295-1.5236-0.59013-24.724-8e-3 -26.245 0.31044-0.81138 1.3972-1.1575 3.6342-1.1575 3.9203 0 3.894-0.0815 4.1354 12.806l0.17819 9.5131 10.944 0.73177v5.1224l-9.2166 0.20417c-7.9224 0.17549-9.2799 0.0386-9.6676-0.97457zm22.5 0.21894c-0.20229-0.52871-0.27785-6.8776-0.16792-14.109l0.19989-13.148h6.5667l0.17819 9.5131c0.2536 13.539-0.17053 12.703 6.5771 12.958l5.6484 0.21362v5.1224l-9.3173 0.20492c-7.1694 0.15767-9.4021-0.0167-9.6851-0.75638zm22.626 0.0204c-0.20659-0.53995-0.28567-6.898-0.17574-14.129l0.19989-13.148 5.837-0.22343c7.4735-0.28607 10.022 0.21309 12.722 2.492 2.7276 2.3019 3.4637 5.7281 1.9904 9.2646-1.4352 3.4451-3.7085 4.8405-8.9492 5.4933l-4.3041 0.53615-0.36481 5.1224-0.36482 5.1224-3.1076 0.22534c-2.0946 0.15189-3.23-0.0947-3.4832-0.75637zm12.111-16.691c3.0412-1.6327 1.1736-5.097-2.7476-5.097-2.2424 0-2.4078 0.16754-2.4078 2.4392 0 1.3416 0.21889 2.6588 0.48642 2.9271 0.72365 0.72578 3.0665 0.59046 4.669-0.26967zm-86.369-29.034c-1.5183-2.5319-45.742-102.12-45.742-103.01 0-1.0111 1.6476-1.1256 13.681-0.9505l13.681 0.1991 12.167 28.539c6.6921 15.697 12.567 28.539 13.055 28.539s6.7036-12.843 13.812-28.539l12.925-28.539 13.619-0.19916c10.562-0.15444 13.7 0.0118 13.979 0.74073 0.19779 0.51693-10.754 23.987-24.337 52.155l-24.697 51.215-5.8982 0.21156c-3.244 0.11635-6.054-0.0483-6.2444-0.36589zm-258.45-1.1086c-0.19534-0.51286-0.27018-23.819-0.16631-51.791l0.18886-50.858 10.944-0.18223c6.0194-0.10022 11.289 0.0644 11.71 0.36589 0.42089 0.30146 12.733 13.884 27.361 30.183l26.596 29.634 0.38533-30c0.21194-16.5 0.45819-30.09 0.54723-30.201 0.089-0.11013 5.8256-0.11013 12.748 0l12.586 0.20022v103.18l-20.101 0.40742-2.5274-2.7649c-1.3901-1.5207-13.941-15.667-27.89-31.436-13.95-15.769-25.691-28.584-26.092-28.479-0.46463 0.12229-0.86212 11.465-1.0944 31.232l-0.36482 31.04-12.237 0.20071c-9.39 0.15401-12.32-0.0163-12.593-0.73178zm110.56-0.24477c0-1.2194 42.769-100.24 43.992-101.86 0.51393-0.67771 4.4473-0.91472 15.18-0.91472 14.23 0 14.505 0.0292 15.522 1.6465 1.4813 2.3556 39.128 99.603 39.128 101.07 0 1.107-1.2958 1.2047-13.596 1.0246l-13.596-0.19909-2.4628-6.586c-1.3545-3.6223-2.9793-7.9855-3.6105-9.696l-1.1477-3.11h-44.121l-7.9473 19.392-13.67 0.19909c-12.143 0.17684-13.67 0.0679-13.67-0.97493zm72.233-37.938c0-0.52344-12.523-34.428-13.102-35.473-0.40113-0.72347-0.70493-0.77231-1.0744-0.17274-0.81286 1.3191-14.279 34.629-14.279 35.32 0 0.34132 6.4025 0.62057 14.228 0.62057s14.228-0.1329 14.228-0.29533zm145.54 38.182c-0.19517-0.51242-0.26987-23.818-0.166-51.79l0.18886-50.858h26.267v103.18l-12.967 0.1999c-9.9748 0.15376-13.049-0.0151-13.322-0.73178zm-262.01-128.62c-4.9046-1.1113-9.0216-5.9342-9.0216-10.568 0-2.5729 2.1831-6.7808 12.743-24.563 4.9-8.2508 10.29-17.389 11.978-20.307 1.6879-2.918 3.3895-5.3054 3.7812-5.3054 0.9836 0 6.866 9.2587 9.5856 15.088 2.8499 6.1079 2.8877 5.9801-6.7355 22.745-4.1123 7.1642-8.2596 14.414-9.2162 16.111-3.0656 5.4379-7.9492 7.9698-13.115 6.7994zm64.306-0.12433c-5.2337-2.8903-7.53-6.3595-25.594-38.666-11.772-21.054-13.751-25.04-14.02-28.237-0.54504-6.4941 3.5011-11.271 9.5524-11.277 5.7578-6e-3 10.425 4.4444 16.909 16.123 6.8708 12.375 14.413 25.119 15.698 26.526 1.1459 1.2541 1.2402 1.2541 2.3524 0 0.93739-1.057 10.803-17.872 21.509-36.66 3.3159-5.8192 9.2504-7.6349 14.144-4.3274 3.7083 2.5064 5.7799 6.0405 5.7799 9.8606 0 2.894-1.7196 6.2982-15.37 30.426-8.4534 14.942-16.535 28.7-17.959 30.573-4.1291 5.4304-9.3225 7.6901-13.003 5.6577zm29.747-0.23453c-4.341-1.8927-6.9146-8.2906-5.304-13.185 1.1138-3.3847 28.329-51.199 32.555-57.195 6.8193-9.6762 13.748-10.062 20.205-1.1248 1.3658 1.8905 9.4617 15.589 17.991 30.441l15.508 27.004-0.314 3.7976c-0.39469 4.7736-2.4708 7.7914-6.8089 9.8977-3.8588 1.8735-6.9346 1.5867-9.9919-0.93185-1.0973-0.90392-7.0407-10.535-13.208-21.401-8.6376-15.221-11.572-19.812-12.78-19.992-0.86209-0.12861-1.5674 0.0605-1.5674 0.42018 0 0.35972-2.3991 4.7458-5.3313 9.7469s-7.235 12.551-9.5617 16.777c-5.1398 9.3355-8.406 13.476-12.137 15.385-3.2987 1.6878-5.9724 1.7922-9.2544 0.36123zm119.91-2.6386c-4.1118-3.2438-4.0968-3.1115-4.0968-36.158 0-33.047-0.015-32.914 4.0968-36.158 2.6913-2.1232 8.8152-2.1232 11.506 0 4.1118 3.2438 4.0968 3.1115 4.0968 36.158 0 33.047 0.015 32.914-4.0968 36.158-1.4036 1.1073-2.9881 1.5282-5.7532 1.5282-2.7652 0-4.3497-0.42088-5.7532-1.5282zm-38.924-18.148c-1.2842-1.9675-3.6922-6.1618-5.351-9.3207-2.4407-4.648-2.9464-6.2644-2.6509-8.474 0.22374-1.673 3.1684-7.4866 7.6033-15.011 3.981-6.7542 8.3781-14.252 9.7713-16.663 3.1706-5.4855 6.2671-7.6927 10.787-7.689 6.16 5e-3 11.011 4.7074 11.016 10.679 2e-3 2.4718-1.3186 5.2989-7.5219 16.099-16.436 28.616-19.656 33.956-20.471 33.956-0.46655 0-1.899-1.6097-3.1832-3.5772zm39.16-65.768c-1.5626-1.4003-2.2953-2.7622-2.3828-4.4291l-0.12638-2.407 7.8524-0.14449c8.5854-0.15797 9.3547 0.23634 7.9077 4.0534-1.9263 5.0815-9.0828 6.6624-13.251 2.9272zm23.393-11.63c-1.9761-0.79121-4.3778-3.4081-4.3778-4.7701 0-1.8327 1.2123-1.6745 3.7812 0.49345 2.4768 2.0902 5.0784 2.3523 6.7463 0.6795 2.1295-2.1358 1.1-3.3576-3.9608-4.7008-4.1639-1.1051-5.837-2.6069-5.837-5.2393 0-3.1154 2.3073-5.009 6.1035-5.009 3.341 0 7.0299 2.1172 7.0299 4.0347 0 1.9077-1.4996 1.9156-3.7462 0.01968-1.5769-1.3308-2.7267-1.7628-3.8156-1.4337-4.1915 1.2667-3.3138 3.4561 2.0074 5.0076 6.0635 1.7679 7.8268 5.1268 4.6412 8.8412-1.6592 1.9346-6.1873 3.0317-8.572 2.0769zm14.022-9.1581c0.20471-8.9949 0.21069-9.0223 1.9677-9.0223 1.5531 0 1.9918 0.68971 3.6947 5.8088 1.0628 3.1948 2.2858 5.9269 2.7177 6.0714 0.43195 0.14441 1.7694-2.4695 2.9721-5.8088 1.9-5.2754 2.4127-6.0714 3.9106-6.0714 1.7164 0 1.7239 0.03849 1.7239 8.7813 0 7.3178-0.18241 8.7813-1.0944 8.7813-0.83293 0-1.1464-1.0928-1.3117-4.5736-0.11947-2.5155-0.50351-4.5736-0.8534-4.5736s-1.1985 1.7288-1.8858 3.8418c-1.43 4.3963-2.2668 5.6713-3.7225 5.6713-0.5654 0-1.1706-0.41162-1.3448-0.91472-0.17426-0.50309-1.0669-2.8905-1.9836-5.3054l-1.6668-4.3907-0.36481 5.1157c-0.29614 4.1527-0.60949 5.1623-1.6646 5.3635-1.1985 0.22845-1.2838-0.45542-1.0944-8.7746z" fill="#70bb73" />
    <path d="m248.34 510.52c-63.817-1.9948-122.72-26.951-168.07-71.209-5.9797-5.8359-13.406-13.574-16.503-17.197-33.569-39.264-53.98-86.429-59.852-138.31-2.1944-19.385-1.5536-44.554 1.5247-59.891 1.6443-8.192 3.048-10.993 5.1698-10.318 0.76897 0.24478 1.8453 0.0728 2.3919-0.38214 1.656-1.3784 1.9686 2.3662 1.1265 13.493-0.99475 13.144-0.99872 42.47-0.0071 52.341 4.7157 46.943 22.007 90.142 51.174 127.84 7.6868 9.9364 28.575 31.09 38.336 38.823 37.557 29.755 78.365 46.86 125.37 52.55 13.868 1.6789 40.863 1.6782 54.722-1e-3 56.135-6.8029 104.9-30.508 144.51-70.251 40.801-40.935 64.595-91.878 70.433-150.8 0.47857-4.8297 0.90492-18.413 0.94745-30.186 0.068-18.812 0.21431-21.404 1.2083-21.404 0.62201-1e-5 1.4614-0.33149 1.8654-0.73661 0.49284-0.49429 1.3682-0.073 2.6611 1.2806 4.7565 4.9801 6.15 32.108 3.0546 59.462-10.075 89.027-67.304 166.9-149.53 203.48-26.56 11.814-58.91 19.701-85.367 20.813-5.2169 0.21923-11.619 0.48567-14.228 0.59207-2.6084 0.1064-7.5334 0.10623-10.944-3.9e-4zm-158.89-131.16c-13.028-3.316-15.227-21.346-3.321-27.225 5.5701-2.7505 15.761-2.1142 17.913 1.1186 0.7534 1.1317 0.68925 4.6624-0.0936 5.1477-0.35857 0.22226-2.0415-0.0876-3.7399-0.68859-9.1896-3.2518-16.034 1.7469-13.797 10.077 1.0731 3.997 4.2384 5.8618 9.1688 5.4017 2.0617-0.19239 4.7763-0.88288 6.0326-1.5344 1.9666-1.02 2.3405-1.0371 2.6902-0.12318 0.90701 2.3706-0.0769 5.1437-2.2812 6.4297-2.6106 1.523-9.1993 2.2548-12.572 1.3964zm28.086-0.29419c-3.5242-1.0994-7.4792-4.287-9.0441-7.2891-1.6118-3.0922-1.6225-10.37-0.0198-13.444 4.5863-8.797 17.627-10.706 24.942-3.6502 8.342 8.0458 4.761 21.445-6.5601 24.547-3.5934 0.98445-5.7614 0.94648-9.3185-0.16324zm10.121-8.1031c2.1175-2.1237 2.4807-2.9917 2.4807-5.9274s-0.36326-3.8037-2.4807-5.9274c-1.9273-1.9329-3.083-2.488-5.1804-2.488s-3.2531 0.55509-5.1804 2.488c-2.1175 2.1237-2.4807 2.9917-2.4807 5.9274s0.36326 3.8037 2.4807 5.9274c1.9273 1.9329 3.083 2.488 5.1804 2.488s3.2531-0.5551 5.1804-2.488zm53.19 8.4292c-4.9494-1.2765-6.8484-3.4771-5.8159-6.7398 0.3181-1.0052 0.89838-1.3955 1.6908-1.1372 0.66358 0.21627 2.7837 0.9498 4.7113 1.6301 2.7462 0.96918 3.8911 1.0603 5.2898 0.42114 3.0918-1.4129 2.1163-2.928-3.5537-5.5195-6.249-2.8561-8.5242-5.3314-8.5242-9.2739 0-5.6004 6.0912-9.3896 13.311-8.2805 4.9738 0.76402 7.1185 2.1619 7.1185 4.6398 0 2.9239-0.79964 3.1976-5.1613 1.7668-2.6904-0.8826-4.3094-1.0409-5.6845-0.55588-3.2239 1.1371-2.2374 2.6863 3.4625 5.4378 6.6804 3.2248 8.1203 4.8931 8.0897 9.3729-0.0249 3.6416-0.75083 5.0198-3.6249 6.882-2.1818 1.4137-8.2603 2.1426-11.309 1.3563zm28.18-0.0537c-3.2243-0.80898-5.9533-2.9-7.7085-5.9065-1.1062-1.8948-1.4861-4.2364-1.7318-10.673-0.43038-11.277-0.20262-11.993 3.8144-11.993 2.237 0 3.3238 0.34614 3.6342 1.1575 0.24358 0.63663 0.44288 4.9325 0.44288 9.5463 0 7.931 0.0977 8.4869 1.7909 10.185 2.1732 2.1796 5.3966 2.3449 7.7958 0.39974 1.6158-1.3099 1.7451-2.0015 2.0873-11.16l0.36482-9.7631h6.5667l0.20161 10.291c0.18958 9.6772 0.10239 10.439-1.4617 12.767-0.91484 1.3615-2.6472 3.0492-3.8498 3.7505-2.6525 1.5468-8.587 2.2415-11.947 1.3986zm124.77-0.39747c-3.5243-1.1024-6.9027-3.953-8.6748-7.3194-1.5433-2.9318-1.5157-10.286 0.0499-13.289 3.7739-7.2389 14.017-10.107 22.942-6.4244 2.0364 0.84024 2.3713 1.3394 2.3713 3.5338 0 1.4054-0.28733 2.7335-0.63852 2.9512-0.35119 0.21768-2.1831-0.13206-4.071-0.7772-7.9106-2.7033-14.261 0.63835-14.261 7.5044 0 2.8507 0.3792 3.7349 2.5241 5.8862 2.2129 2.2194 2.9101 2.5036 5.6546 2.3051 2.4818-0.17954 3.1737-0.52972 3.339-1.69 0.13497-0.94709-0.37999-1.7218-1.4593-2.1953-1.2046-0.52852-1.6678-1.3415-1.6678-2.9271v-2.1953h10.944l0.21174 5.595c0.19918 5.2636 0.10017 5.683-1.6713 7.0806-1.8681 1.4738-7.714 3.1027-10.798 3.0086-0.88317-0.0269-3.0416-0.49809-4.7965-1.047zm-191.64-0.53268c-0.20659-0.53995-0.28567-6.898-0.17574-14.129l0.19989-13.147 2.9939-0.21978c2.9569-0.21705 3.0741-0.12901 9.4852 7.122 3.5702 4.038 6.8899 7.3475 7.377 7.3546 0.62068 9e-3 0.94809-2.1216 1.0944-7.122l0.20883-7.1348h6.5667v27.807l-2.6565 0.22235c-2.5374 0.2124-2.9582-0.11553-9.3903-7.3178-3.7036-4.1471-7.1752-7.6443-7.7147-7.7717-0.76305-0.18013-1.0272 1.445-1.1894 7.3178l-0.20847 7.5493-3.1076 0.22534c-2.0946 0.15189-3.23-0.0947-3.4832-0.75637zm89.737-0.0204c-0.20229-0.52871-0.27785-6.8776-0.16792-14.109l0.19989-13.147h6.5667l0.17819 9.5131c0.2536 13.539-0.17053 12.703 6.5771 12.958l5.6484 0.21362v5.1224l-9.3173 0.20492c-7.1694 0.15767-9.4021-0.0167-9.6851-0.75638zm27.013 3e-3c-0.18373-0.5031-0.41967-5.5249-0.52432-11.16l-0.19029-10.245-3.7712-0.21912c-4.2879-0.24914-5.732-1.4448-5.0477-4.1792l0.4645-1.8561 25.136 0.4v5.1224l-8.3908 0.43893v10.148c0 5.5817-0.19929 10.669-0.44288 11.306-0.55039 1.4385-6.721 1.6456-7.2332 0.2428zm19.807-0.20646c-0.68389-1.7874-0.52895-25.439 0.17393-26.551 0.39314-0.62179 1.7444-0.88068 3.8194-0.73178l3.211 0.23013v27.807l-3.3738 0.21927c-2.5836 0.16792-3.4808-0.0604-3.8306-0.97457zm13.017 0.22426c-0.2066-0.53994-0.28568-6.898-0.17574-14.129l0.19989-13.148 2.9673-0.21847c2.9096-0.21422 3.0988-0.0755 9.7326 7.1348 3.7209 4.0443 7.0525 7.3533 7.4035 7.3533s0.73218-3.2107 0.84704-7.1348l0.20883-7.1348h6.5667v27.807l-2.6364 0.22115c-2.5265 0.21193-2.9344-0.11696-9.7885-7.8917-3.9337-4.462-7.4132-7.851-7.7323-7.5309-0.31911 0.32004-0.67512 3.8713-0.79113 7.8917l-0.21093 7.3098-3.1076 0.22534c-2.0946 0.15189-3.23-0.0947-3.4832-0.75637zm75.262-0.23937c-0.58295-1.5236-0.59013-24.724-8e-3 -26.245 0.31044-0.81138 1.3972-1.1575 3.6342-1.1575 3.9203 0 3.894-0.0815 4.1354 12.806l0.17819 9.5131 10.944 0.73177v5.1224l-9.2166 0.20417c-7.9224 0.17549-9.2799 0.0386-9.6676-0.97457zm22.5 0.21894c-0.20229-0.52871-0.27785-6.8776-0.16792-14.109l0.19989-13.148h6.5667l0.17819 9.5131c0.2536 13.539-0.17053 12.703 6.5771 12.958l5.6484 0.21362v5.1224l-9.3173 0.20492c-7.1694 0.15767-9.4021-0.0167-9.6851-0.75638zm22.626 0.0204c-0.20659-0.53995-0.28567-6.898-0.17574-14.129l0.19989-13.148 5.837-0.22343c7.4735-0.28607 10.022 0.21309 12.722 2.492 2.7276 2.3019 3.4637 5.7281 1.9904 9.2646-1.4352 3.4451-3.7085 4.8405-8.9492 5.4933l-4.3041 0.53615-0.36481 5.1224-0.36482 5.1224-3.1076 0.22534c-2.0946 0.15189-3.23-0.0947-3.4832-0.75637zm12.111-16.691c3.0412-1.6327 1.1736-5.097-2.7476-5.097-2.2424 0-2.4078 0.16754-2.4078 2.4392 0 1.3416 0.21889 2.6588 0.48642 2.9271 0.72365 0.72578 3.0665 0.59046 4.669-0.26967zm-86.369-29.034c-1.5183-2.5319-45.742-102.12-45.742-103.01 0-1.0111 1.6476-1.1256 13.681-0.9505l13.681 0.1991 12.167 28.539c6.6921 15.697 12.567 28.539 13.055 28.539s6.7036-12.843 13.812-28.539l12.925-28.539 13.619-0.19916c10.562-0.15444 13.7 0.0118 13.979 0.74073 0.19779 0.51693-10.754 23.987-24.337 52.155l-24.697 51.215-5.8982 0.21156c-3.244 0.11635-6.054-0.0483-6.2444-0.36589zm-258.45-1.1086c-0.19534-0.51286-0.27018-23.819-0.16631-51.791l0.18886-50.858 10.944-0.18223c6.0194-0.10022 11.289 0.0644 11.71 0.36589 0.42089 0.30146 12.733 13.884 27.361 30.183l26.596 29.634 0.38533-30c0.21194-16.5 0.45819-30.09 0.54723-30.201 0.089-0.11013 5.8256-0.11013 12.748 0l12.586 0.20022v103.18l-20.101 0.40742-2.5274-2.7649c-1.3901-1.5207-13.941-15.667-27.89-31.436-13.95-15.769-25.691-28.584-26.092-28.479-0.46463 0.12229-0.86212 11.465-1.0944 31.232l-0.36482 31.04-12.237 0.20071c-9.39 0.15401-12.32-0.0163-12.593-0.73178zm110.56-0.24477c0-1.2194 42.769-100.24 43.992-101.86 0.51393-0.67771 4.4473-0.91472 15.18-0.91472 14.23 0 14.505 0.0292 15.522 1.6465 1.4813 2.3556 39.128 99.603 39.128 101.07 0 1.107-1.2958 1.2047-13.596 1.0246l-13.596-0.19909-2.4628-6.586c-1.3545-3.6223-2.9793-7.9855-3.6105-9.696l-1.1477-3.11h-44.121l-7.9473 19.392-13.67 0.19909c-12.143 0.17684-13.67 0.0679-13.67-0.97493zm72.233-37.938c0-0.52344-12.523-34.428-13.102-35.473-0.40113-0.72347-0.70493-0.77231-1.0744-0.17274-0.81286 1.3191-14.279 34.629-14.279 35.32 0 0.34132 6.4025 0.62057 14.228 0.62057s14.228-0.1329 14.228-0.29533zm145.54 38.182c-0.19517-0.51242-0.26987-23.818-0.166-51.79l0.18886-50.858h26.267v103.18l-12.967 0.1999c-9.9748 0.15376-13.049-0.0151-13.322-0.73178zm-262.01-128.62c-4.9046-1.1113-9.0216-5.9342-9.0216-10.568 0-2.5729 2.1831-6.7808 12.743-24.563 4.9-8.2508 10.29-17.389 11.978-20.307 1.6879-2.918 3.3895-5.3054 3.7812-5.3054 0.9836 0 6.866 9.2587 9.5856 15.088 2.8499 6.1079 2.8877 5.9801-6.7355 22.745-4.1123 7.1642-8.2596 14.414-9.2162 16.111-3.0656 5.4379-7.9492 7.9698-13.115 6.7994zm64.306-0.12433c-5.2219-2.8838-7.4854-6.2988-25.627-38.666-12.393-22.109-13.742-24.854-13.757-27.97-0.0121-2.6192 0.38029-3.8531 1.6213-5.0977 1.4394-1.4436 2.4467-1.6549 8.3347-1.748l6.6974-0.10588 2.9745 2.7507c1.636 1.5129 4.4811 5.3364 6.3225 8.4966 1.8414 3.1602 6.0873 10.448 9.4353 16.194 3.348 5.7467 6.4703 10.767 6.9385 11.157 1.245 1.0363 2.2796-0.38376 9.8758-13.556 7.5555-13.101 12.567-20.976 14.229-22.36 0.66734-0.55547 3.8575-1.024 7.9734-1.171 6.3796-0.22789 7.0043-0.1214 8.9044 1.5178 1.6696 1.4404 2.0368 2.3433 2.0074 4.9362-0.0312 2.754-2.0394 6.7025-15.193 29.873-8.3362 14.685-16.319 28.229-17.741 30.098-4.124 5.4236-9.319 7.6822-12.997 5.6508zm29.747-0.23453c-4.3358-1.8904-6.9148-8.2902-5.3082-13.172 1.1117-3.3785 26.684-48.251 29.985-52.616 1.3679-1.8087 3.1438-3.6138 3.9464-4.0114 0.80259-0.3976 4.9429-0.91602 9.2007-1.152l7.7415-0.42915 2.8448 3.12c3.6083 3.9574 4.7625 5.8238 19.98 32.308 12.516 21.783 12.565 21.886 12.251 25.679-0.39568 4.7854-2.468 7.8007-6.8098 9.9088-3.8588 1.8735-6.9346 1.5867-9.9919-0.93185-1.0973-0.90392-7.0407-10.535-13.208-21.401-8.6376-15.221-11.572-19.812-12.78-19.992-0.86209-0.12861-1.5674 0.0605-1.5674 0.42018 0 0.35972-2.3991 4.7458-5.3313 9.7469s-7.235 12.551-9.5617 16.777c-5.1398 9.3355-8.406 13.476-12.137 15.385-3.2987 1.6878-5.9724 1.7922-9.2544 0.36123zm119.91-2.6386c-4.0749-3.2147-4.0971-3.3942-4.0927-33.012 2e-3 -16.315 0.30377-28.377 0.7491-29.985 0.57443-2.0743 1.2-2.7825 2.732-3.0929 2.7325-0.5537 13.007-0.3364 14.029 0.29668 1.7589 1.0902 2.1518 7.096 2.1687 33.147 0.0189 29.223-7e-3 29.434-4.0794 32.646-1.4036 1.1073-2.9881 1.5282-5.7532 1.5282-2.7652 0-4.3497-0.42088-5.7532-1.5282zm-38.924-18.148c-1.2842-1.9675-3.6922-6.1618-5.351-9.3207-2.441-4.6485-2.9464-6.2642-2.6508-8.4747 0.39906-2.9839 11.02-21.463 15.88-27.63l2.9043-3.6851h6.083c3.3457 0 7.6115 0.21011 9.4796 0.46691 2.8374 0.39006 3.4723 0.76962 3.8567 2.3058 0.2531 1.0114 0.0423 3.024-0.46857 4.4726-1.4359 4.0717-25.619 45.443-26.563 45.443-0.45989 0-1.8869-1.6097-3.1711-3.5772zm62.553-77.398c-1.9761-0.79121-4.3778-3.4081-4.3778-4.7701 0-1.8327 1.2123-1.6745 3.7812 0.49345 2.4768 2.0902 5.0784 2.3523 6.7463 0.6795 2.1295-2.1358 1.1-3.3576-3.9608-4.7008-4.1639-1.1051-5.837-2.6069-5.837-5.2393 0-3.1154 2.3073-5.009 6.1035-5.009 3.341 0 7.0299 2.1172 7.0299 4.0347 0 1.9077-1.4996 1.9156-3.7462 0.01968-1.5769-1.3308-2.7267-1.7628-3.8156-1.4337-4.1915 1.2667-3.3138 3.4561 2.0074 5.0076 6.0635 1.7679 7.8268 5.1268 4.6412 8.8412-1.6592 1.9346-6.1873 3.0317-8.572 2.0769zm14.022-9.1581c0.20471-8.9949 0.21069-9.0223 1.9677-9.0223 1.5531 0 1.9918 0.68971 3.6947 5.8088 1.0628 3.1948 2.2858 5.9269 2.7177 6.0714 0.43195 0.14441 1.7694-2.4695 2.9721-5.8088 1.9-5.2754 2.4127-6.0714 3.9106-6.0714 1.7164 0 1.7239 0.03849 1.7239 8.7813 0 7.3178-0.18241 8.7813-1.0944 8.7813-0.83293 0-1.1464-1.0928-1.3117-4.5736-0.11947-2.5155-0.50351-4.5736-0.8534-4.5736s-1.1985 1.7288-1.8858 3.8418c-1.43 4.3963-2.2668 5.6713-3.7225 5.6713-0.5654 0-1.1706-0.41162-1.3448-0.91472-0.17426-0.50309-1.0669-2.8905-1.9836-5.3054l-1.6668-4.3907-0.36481 5.1157c-0.29614 4.1527-0.60949 5.1623-1.6646 5.3635-1.1985 0.22845-1.2838-0.45542-1.0944-8.7746z" fill="#55af95" />
    <path d="m230.46 509.1c-38.216-4.3625-72.137-15.673-104.11-34.714-27.782-16.545-54.211-40.697-73.807-67.448-15.534-21.206-29.262-48.482-36.594-72.706-4.9095-16.22-8.0409-31.88-6.829-34.152 1.0923-2.047 5.2025-1.3714 5.8999 0.9698 0.29186 0.97985 1.9868 7.2219 3.7665 13.871 9.2195 34.445 24.688 65.451 46.224 92.655 7.7423 9.7797 28.768 30.971 38.158 38.458 36.066 28.757 75.518 45.642 122.18 52.293 14.365 2.0475 49.935 1.8729 64.37-0.31599 53.105-8.0526 99.273-30.724 136.45-67.005 30.533-29.798 50.365-61.911 64.384-104.25 2.7063-8.174 5.2812-15.224 5.722-15.666 0.58208-0.5838 1.084-0.56847 1.8343 0.056 0.56809 0.47286 1.567 0.65418 2.2198 0.40294 1.7262-0.66434 1.546 1.5607-0.95506 11.792-8.0442 32.909-23.984 64.638-47.032 93.616-7.7211 9.7078-27.244 29.226-37.287 37.278-45.88 36.784-101.68 56.31-159.94 55.961-8.7474-0.0523-19.844-0.54489-24.66-1.0946zm-142.07-130.48c-3.2806-1.0646-6.365-3.6722-7.8902-6.6708-2.0271-3.9852-1.9323-10.388 0.21093-14.237 3.1862-5.7229 12.749-8.5564 20.235-5.9958 2.2589 0.77259 2.5805 1.2016 2.786 3.716 0.21836 2.6719 0.13074 2.8117-1.4593 2.3286-6.9597-2.1149-10.14-2.1012-13.425 0.0575-4.33 2.8455-4.2906 11.603 0.06501 14.466 2.6988 1.7736 6.3381 2.0898 9.8673 0.85737 4.5508-1.5891 5.0843-1.4822 5.0843 1.0187 0 3.0992-2.5685 4.5494-8.5963 4.8537-2.696 0.1361-5.7912-0.0411-6.8782-0.39387zm27.513-0.70361c-7.2211-3.3426-10.305-11.585-7.0117-18.741 2.4542-5.3332 7.4274-8.4154 13.578-8.4154 16.008 0 20.689 21.265 6.0329 27.407-3.6117 1.5135-9.021 1.406-12.6-0.25049zm11.188-5.6753c3.845-2.4954 4.6262-9.0162 1.5501-12.938-6.1124-7.7934-17.89 0.82908-13.32 9.7518 2.3831 4.6529 7.4125 6.0146 11.77 3.1865zm52.426 6.3583c-2.9247-0.943-4.1487-2.1535-4.1487-4.1029 0-2.3587 0.88826-2.6794 3.912-1.4123 3.6735 1.5394 8.2574 1.4357 9.1338-0.2067 1.0481-1.9642-0.18672-3.4522-4.0834-4.9206-4.8566-1.8302-7.5026-3.8447-8.6419-6.5794-2.5798-6.1925 3.1835-11.29 11.761-10.402 5.3202 0.5507 6.8891 1.527 6.8891 4.2867 0 2.0042-0.18259 2.1973-1.6417 1.7367-0.90292-0.28504-3.5249-0.69198-5.8266-0.90432-3.5355-0.32618-4.2612-0.1868-4.6763 0.89824-0.78058 2.0402 0.65731 3.4896 5.2203 5.2622 2.3362 0.90758 5.009 2.3675 5.9396 3.2443 3.4037 3.207 2.8676 9.4675-1.0301 12.029-2.1582 1.4183-9.759 2.0541-12.807 1.0714zm28.212-0.0994c-2.9208-0.84864-6.6212-5.0434-7.1886-8.1492-0.24057-1.3167-0.33884-6.0162-0.2184-10.443l0.21899-8.0495 6.0843-0.44428 0.24118 9.534c0.22123 8.7464 0.37709 9.6702 1.8865 11.182 1.1566 1.1585 2.5102 1.6481 4.5565 1.6481 2.0464 0 3.3999-0.4896 4.5565-1.6481 1.5094-1.512 1.6653-2.4357 1.8865-11.182l0.24118-9.534 6.0843 0.44428 0.20015 8.7813c0.18033 7.9118 0.0358 9.1074-1.4593 12.074-2.7862 5.529-9.8012 7.9043-17.09 5.7866zm124.88-0.53732c-11.964-5.7279-10.678-23.083 1.9651-26.513 3.5757-0.97011 10.199-0.56111 13.175 0.8136 1.6236 0.75 2.0065 1.4095 2.0065 3.456 0 2.2771-0.16355 2.4813-1.6417 2.0491-6.8949-2.0158-9.0134-2.1455-11.907-0.7288-5.3089 2.599-6.8125 9.1134-3.1743 13.752 1.9302 2.4611 6.1758 3.7652 8.8796 2.7275 2.5988-0.99733 2.7012-3.5046 0.1824-4.4651-2.102-0.80151-2.5533-3.9534-0.66995-4.6782 1.6717-0.64337 7.0755-0.52428 8.183 0.18034 0.67011 0.42634 0.88311 2.1744 0.72963 5.9879-0.21096 5.2418-0.28174 5.4237-2.6471 6.8064-3.5874 2.097-11.323 2.4108-15.081 0.61177zm-190.36-0.55255c-0.57709-1.5083-0.57709-23.252 0-24.761 0.29577-0.77305 1.359-1.1575 3.2012-1.1575 2.5626 0 3.2151 0.50633 9.1956 7.1348 3.5405 3.9242 6.9429 7.1348 7.5609 7.1348 0.92054 0 1.1613-1.2892 1.3324-7.1348l0.20883-7.1348h5.7842v27.076h-2.4963c-2.2368 0-3.1572-0.74189-8.8519-7.1348-7.7341-8.6823-8.4261-9.2871-9.2096-8.0495-0.31849 0.50307-0.58411 4.1253-0.59025 8.0495l-0.0112 7.1348h-2.8405c-1.917 0-2.9844-0.3763-3.2833-1.1575zm90.031-12.422v-13.58l6.2019 0.45004 0.20337 10.581c0.14107 7.3396 0.47631 10.754 1.0944 11.148 0.4901 0.3123 3.1073 0.57286 5.8161 0.57902l4.925 0.0112v4.3907h-18.241zm26.996 3.517c0-6.9868-0.28406-10.523-0.91203-11.353-0.58335-0.77121-2.2268-1.2831-4.5602-1.4205-3.3837-0.19917-3.665-0.3619-3.8807-2.2446l-0.23255-2.0299 25.273 0.40088v1.8294c0 1.6872-0.29327 1.8465-3.7712 2.0486-2.0741 0.12051-4.1166 0.63653-4.5387 1.1467-0.43199 0.52204-0.85671 5.3853-0.97145 11.123l-0.20386 10.196-6.2019 0.45004zm20.024 9.1213c-0.19814-0.51788-0.26993-6.5276-0.15951-13.355l0.20076-12.413 6.2018-0.45004v27.16h-2.9414c-1.7248 0-3.0904-0.38945-3.3017-0.94159zm12.81-12.596v-13.538l2.7361-0.0218c2.5362-0.0202 3.2465 0.52368 9.7193 7.442 4.3568 4.6566 7.3068 7.2632 7.8435 6.9305 0.5624-0.34858 0.86034-2.9257 0.86034-7.4419v-6.9087h2.8405c1.917 0 2.9844 0.3763 3.2833 1.1575 0.57709 1.5083 0.57709 23.252 0 24.761-0.28013 0.73217-1.3283 1.1575-2.8524 1.1575-2.1502 0-3.1734-0.86637-9.5059-8.0495-3.903-4.4272-7.3514-8.0495-7.663-8.0495-0.55292 0-1.6373 4.9283-1.3808 6.275 0.0709 0.37229 0.0901 2.735 0.0425 5.2505l-0.0864 4.5736h-5.837zm75.475 12.596c-0.19815-0.51788-0.26993-6.5276-0.15951-13.355l0.20075-12.413h5.837l0.20387 10.196c0.1198 5.9917 0.53271 10.593 1.0014 11.16 0.51595 0.62352 2.5415 0.96377 5.7375 0.96377 5.0984 0 6.3303 0.75687 5.36 3.293-0.5695 1.4885-17.615 1.6348-18.181 0.15607zm22.295-12.596v-13.538h2.8404c1.9171 0 2.9844 0.3763 3.2833 1.1575 0.24359 0.63663 0.44288 5.5409 0.44288 10.898 0 11.171-0.35637 10.629 6.9912 10.629h4.6829v4.3907h-18.241zm22.212 12.596c-0.19815-0.51788-0.26993-6.5276-0.15952-13.355l0.20076-12.413 7.13-0.20963c8.0175-0.23574 11.411 0.80548 12.834 3.9382 2.6712 5.8799-1.4842 11.995-8.1552 12.002-4.8372 5e-3 -5.6067 0.86226-5.6067 6.2486v4.7308h-2.9414c-1.7248 0-3.0904-0.38945-3.3017-0.94159zm13.585-16.707c1.5422-2.8902-2.9033-6.3478-5.8135-4.5215-1.6033 1.0061-1.9408 4.6909-0.52467 5.7294 1.594 1.169 5.4633 0.43156 6.3381-1.2079zm-110.06-79.233c-12.529-27.929-22.779-51.144-22.779-51.59 0-0.56238 3.9852-0.81037 13.023-0.81037h13.023l1.2796 2.8459c0.70375 1.5652 6.2826 14.655 12.398 29.088 6.7429 15.915 11.503 26.242 12.097 26.242 0.58031 0 6.103-11.317 13.57-27.807 6.925-15.294 12.943-28.384 13.372-29.088 0.69747-1.1431 2.1905-1.2806 13.908-1.2806 7.2199 0 13.13 0.24697 13.134 0.54883 4e-3 0.30185-11.063 23.517-24.593 51.59l-24.6 51.041h-11.051zm-236.12 48.891c-0.57867-1.5124-0.57867-98.621 0-100.13 0.37639-0.98375 2.0729-1.1575 11.301-1.1575h10.858l26.714 29.82c14.693 16.401 27.169 29.926 27.726 30.055 0.84811 0.19691 1.0431-4.6077 1.2028-29.637l0.19064-29.872 24.443-0.40127v102.53l-20.044-0.40719-27.929-31.466c-15.361-17.306-28.253-31.576-28.649-31.71-0.46557-0.1578-0.71966 10.608-0.71966 30.492 0 16.905-0.19929 31.257-0.44288 31.893-0.37876 0.98993-2.1632 1.1575-12.326 1.1575-10.162 0-11.947-0.16758-12.326-1.1575zm111.45-0.48898c0.23241-0.90558 10.1-23.874 21.928-51.041l21.506-49.395 14.599-0.19799c13.343-0.18095 14.657-0.0865 15.281 1.0977 1.2615 2.3936 38.785 99.454 38.785 100.32 0 1.2675-25.226 1.2139-26.031-0.0553-0.31907-0.5031-2.0622-4.8663-3.8736-9.696l-3.2935-8.7813h-45.115l-3.4668 8.4154c-1.9068 4.6285-3.825 8.9917-4.2627 9.696-0.70904 1.1409-2.197 1.2806-13.637 1.2806h-12.841l0.42257-1.6465zm71.553-36.322c0.44828-0.72746-12.312-35.827-13.434-36.952-0.39493-0.39609-0.92085-0.51677-1.1687-0.26818-0.72817 0.73031-14.896 35.817-14.896 36.89 0 0.78399 2.8912 0.97842 14.55 0.97842 8.0022 0 14.729-0.29162 14.949-0.64805zm145.61-13.256v-51.224h25.537v102.45h-25.537zm-264.66-79.005c-4.2045-1.9142-6.2031-5.227-5.824-9.6537 0.32217-3.7626 6.4104-14.55 18.03-31.946l6.2018-9.285 3.1996 0.14837c3.797 0.17607 5.6124 1.6592 8.4649 6.9156 1.5251 2.8104 1.9132 4.3359 1.6193 6.3656-0.39566 2.7331-16.243 31.986-19.039 35.145-1.774 2.0041-5.4813 3.7548-7.9017 3.7314-0.91581-9e-3 -3.0537-0.6483-4.751-1.421zm66.564 0.5851c-2.3069-1.2765-5.4435-4.3833-7.6359-7.5634-3.6152-5.244-21.067-38.13-22.232-41.894-0.50441-1.6296-0.4397-1.6458 6.2886-1.5741 3.739 0.0398 8.5555 0.28678 10.703 0.54883l3.905 0.47646 5.6303 8.4154c3.9331 5.8787 6.0551 8.4154 7.0395 8.4154 0.97316 0 2.795-2.1195 5.888-6.8499 6.6391-10.154 5.689-9.5879 16.45-9.7997 5.0658-0.0997 9.474 0.0787 9.796 0.39642 1.0077 0.99412-17.415 36.374-22.828 43.839-4.0845 5.6333-9.0603 7.7722-13.004 5.5898zm28.959-0.63033c-1.3544-0.8282-2.9103-2.6654-3.5426-4.1829-2.112-5.0695-1.1937-7.6438 8.5551-23.986 4.9408-8.2822 9.9893-16.208 11.219-17.613l2.2356-2.554 14.593-0.0406c8.0259-0.0223 17.289 0.19652 20.584 0.4863l5.9918 0.52688 3.5564 5.2133c1.956 2.8673 6.784 10.623 10.729 17.235 8.1782 13.707 8.7305 15.911 5.2919 21.123-3.3576 5.0886-9.2557 6.65-13.703 3.6276-2.4706-1.679-4.6448-5.331-17.668-29.675-6.1603-11.516-7.8996-14.048-9.6479-14.048-0.55543 0-2.626 3.046-4.6012 6.7689-1.9752 3.7229-6.159 11.61-9.2973 17.527-6.3641 11.999-9.7875 16.946-13.433 19.41-3.1191 2.1082-7.5898 2.1828-10.863 0.18143zm121.93-1.4126c-4.7173-2.8848-4.9086-3.7064-4.6712-20.063 0.11759-8.1008 0.42799-16.869 0.68979-19.485l0.476-4.7565h16.052l0.47911 4.3907c0.2635 2.4149 0.59184 11.155 0.72963 19.423 0.22525 13.516 0.1177 15.236-1.066 17.049-1.7354 2.6576-5.4444 4.8678-8.1687 4.8678-1.2039 0-3.2381-0.64164-4.5205-1.4259zm-38.751-17.412c-0.77924-1.1068-2.9358-4.8385-4.7923-8.2926-4.731-8.8023-4.5843-11.731 0.8859-17.685 1.8403-2.0033 1.893-2.0124 11.641-2.0124h9.7926l-0.50097 2.0124c-0.59953 2.4083-14.399 27.952-15.112 27.975-0.27364 9e-3 -1.1351-0.88997-1.9143-1.9968zm60.648-79.22c-1.7294-0.69884-3.5592-3.486-2.793-4.2543 0.26061-0.26137 1.026 0.22571 1.7008 1.0824 2.3822 3.0243 7.3624 3.109 8.9402 0.15215 1.0833-2.0302-0.66183-3.7155-5.1596-4.9826-4.2096-1.1859-5.1074-1.961-5.1074-4.4089 0-2.7765 2.0894-4.4145 5.6312-4.4145 2.992 0 6.9475 2.2577 5.8649 3.3475-0.29851 0.30049-1.1452-4.61e-4 -1.8815-0.66878-1.7064-1.5488-6.2133-1.5827-7.4765-0.05613-1.5063 1.8203 0.0321 3.4303 4.7239 4.9438 2.9473 0.95074 4.4087 1.8644 4.9746 3.11 2.0654 4.5463-3.8409 8.4029-9.4176 6.1494zm15.092-8.3671c0-6.8769 0.1966-8.4586 1.0514-8.4586 1.3942 0 1.8566 0.83864 4.0349 7.3178 2.5308 7.5276 3.5095 7.4443 6.225-0.53001 1.4458-4.2457 2.5577-6.4219 3.2813-6.4219 0.89576 0 1.1319 1.4945 1.3007 8.2325 0.13302 5.3081-0.0614 8.2325-0.54722 8.2325-0.45077 0-0.75352-2.1878-0.75352-5.4451 0-8.2601-1.6641-7.8634-4.4236 1.0545-1.3705 4.4292-3.1426 5.5959-3.9003 2.568-0.97489-3.8957-3.4788-9.8858-4.1323-9.8858-0.37246 0-0.6772 2.4503-0.6772 5.4451 0 2.9948-0.32834 5.6486-0.72963 5.8974-0.47035 0.29154-0.72963-2.5536-0.72963-8.0063z" fill="#2da5af" />
    <path d="m239.95 509.54c-2.0065-0.31964-7.2598-0.95075-11.674-1.4025-57.002-5.8332-113.6-33.68-152.9-75.228-12.065-12.756-26.137-31.379-27.33-36.167-0.46984-1.8866-0.3884-1.949 2.2695-1.7374 3.132 0.24924 3.9715 1.0594 14.477 13.971 8.2873 10.185 24.77 26.738 34.784 34.931 43.683 35.74 94.573 55.028 149.49 56.66 59.493 1.7672 116.3-17.713 163.38-56.028 9.0226-7.3429 24.108-21.952 31.511-30.515 7.2704-8.4106 8.4827-9.2739 11.994-8.5422l2.6501 0.55222-2.7336 4.0168c-7.8869 11.589-26.224 31.166-39.712 42.396-28.065 23.367-63.175 41.075-98.865 49.862-11.245 2.7685-22.85 4.79-33.296 5.8-4.5609 0.44097-10.071 1.1136-12.245 1.4947-4.6582 0.8167-26.552 0.77394-31.8-0.0621zm-193.72-117.06c0-0.40248 0.34771-0.73178 0.77269-0.73178s0.56977 0.3293 0.32175 0.73178-0.59572 0.73177-0.77269 0.73177-0.32176-0.32929-0.32176-0.73177zm40.305-15.448c-3.7134-1.8435-5.6343-4.3518-6.7569-8.8229-1.5584-6.2072 1.2601-12.484 6.817-15.182 3.5264-1.7121 10.419-2.0619 14.248-0.723 1.8908 0.66106 2.2978 1.1934 2.2978 3.0054 0 1.8194-0.22186 2.1062-1.2768 1.6505-2.8836-1.2455-10.128-1.2457-12.53-3.2e-4 -5.6666 2.9389-5.7622 13.169-0.15033 16.08 2.7784 1.441 8.1123 1.4747 11.458 0.0725 2.2522-0.94382 2.612-0.94382 2.9731 0 1.8024 4.7108-10.022 7.4246-17.081 3.9203zm29.375 0.3282c-5.2565-2.7793-7.6611-6.6245-7.6611-12.251 0-8.2113 5.6431-13.609 14.228-13.609 8.5524 0 14.228 5.4002 14.228 13.538 0 5.7465-2.3005 9.4971-7.4496 12.146-3.3596 1.728-10.238 1.8189-13.345 0.1764zm11.969-5.0576c6.4838-5.4718 2.8825-16.412-5.4025-16.412-8.291 0-11.886 10.94-5.3949 16.418 3.082 2.6009 7.7111 2.5982 10.797-7e-3zm15.574 5.7889c-0.68073-0.27549-0.91204-3.6074-0.91204-13.137 0-10.683 0.17901-12.837 1.0961-13.19 2.4274-0.93421 4.8731 0.78551 11.045 7.7666 3.5553 4.0211 7.0268 7.3168 7.7145 7.3239 1.081 0.0111 1.2787-0.94336 1.4593-7.0443 0.171-5.7787 0.44014-7.2031 1.4857-7.8628 0.92954-0.58654 1.6242-0.58622 2.5537 1e-3 1.1178 0.70635 1.3017 2.3111 1.4764 12.881 0.27742 16.784-0.81463 17.471-10.464 6.5819-7.0822-7.9921-9.0008-9.7967-9.8533-9.2682-0.37225 0.23074-0.67682 3.6272-0.67682 7.5478 0 8.3515-0.9674 10.001-4.925 8.3998zm35.022-0.60634c-1.8212-0.79388-2.3713-1.4845-2.3713-2.9768 0-1.5508 0.25778-1.8434 1.2768-1.4493 6.83 2.6411 11.32 2.202 11.711-1.145 0.26285-2.2517-0.43057-2.8475-5.797-4.9804-2.2652-0.90029-4.7854-2.3536-5.6005-3.2297-4.9908-5.3637-0.73366-12.195 7.6037-12.201 5.4699-4e-3 8.3172 1.1761 8.3172 3.4472 0 1.5754-0.23854 1.7688-1.6417 1.331-3.9212-1.2234-8.9823-1.2934-9.9389-0.13736-1.7883 2.1611-0.59326 3.706 4.9649 6.4184 2.9828 1.4556 6.0198 3.3856 6.7491 4.2888 2.6326 3.2607 1.2348 8.7117-2.716 10.592-2.9445 1.4014-9.3893 1.4229-12.557 0.0419zm28.288-0.15081c-1.3965-0.72569-3.2936-2.4519-4.2156-3.836-1.5668-2.352-1.6632-3.1417-1.4738-12.074l0.20263-9.5577h4.3778l0.37715 9.4041c0.36802 9.1766 0.42638 9.4466 2.412 11.16 2.1798 1.8805 6.0704 2.3386 8.5514 1.0069 2.4782-1.3302 3.1823-3.8414 3.5858-12.789l0.39595-8.7813h4.3778l0.19259 9.1472c0.21358 10.144-0.5374 12.809-4.4113 15.659-2.8703 2.1112-10.874 2.48-14.372 0.66227zm26.576 0.3002c-0.19814-0.51788-0.26992-6.5276-0.15951-13.355l0.20076-12.413h4.3778l0.36481 10.977 0.36482 10.977 5.2556 0.36588c5.7718 0.40183 7.6238 1.3955 6.0793 3.262-1.2416 1.5005-15.917 1.667-16.484 0.18709zm26.85 0.0949c-0.6376-0.63948-0.90692-3.9938-0.90692-11.296 0-11.649 0.18532-11.274-5.5826-11.274-2.9784 0-3.2533-0.14888-3.0412-1.6465 0.23069-1.6291 0.35628-1.6465 11.907-1.6465s11.677 0.0174 11.907 1.6465c0.21394 1.5108-0.0566 1.6474-3.2833 1.6577-5.6762 0.0181-5.6577-0.0192-6.0702 12.217l-0.36481 10.822-1.8292 0.2144c-1.0061 0.11791-2.2373-0.19493-2.7361-0.69519zm19.865-0.0459c-0.20845-0.54483-0.28868-6.5766-0.17826-13.404l0.20076-12.413h4.3778v26.344l-2.0106 0.23195c-1.197 0.13809-2.164-0.16892-2.3896-0.75864zm13.128 0.11508c-0.75617-1.2271-0.46524-24.998 0.31553-25.781 1.5697-1.5743 4.583 0.51547 10.766 7.4661 3.552 3.9932 7.0265 7.2883 7.7211 7.3224 1.5693 0.0771 1.9651-1.5565 2.2014-9.0852l0.18376-5.8542h4.3778l0.19889 12.904c0.17684 11.473 0.0643 12.956-1.0148 13.372-2.2316 0.85885-3.7302-0.29917-10.874-8.4022-3.9055-4.4301-7.4697-7.9322-7.9204-7.7824-0.51264 0.17034-0.89833 2.9748-1.03 7.4898-0.1158 3.9696-0.56642 7.6475-1.0014 8.1732-0.95316 1.1519-3.2591 1.2566-3.9237 0.17821zm39.428-0.25971c-4.7542-2.1283-7.6611-6.8715-7.6611-12.501 0-5.8799 2.4284-9.7326 7.6611-12.155 5.2688-2.4389 15.865-1.3507 16.84 1.7294 0.65858 2.0811-0.55657 2.933-2.9059 2.0372-1.0947-0.41743-3.9138-0.75897-6.2647-0.75897-3.5271 0-4.6643 0.32915-6.5054 1.8829-4.3922 3.7067-4.3885 10.825 8e-3 14.535 3.9802 3.359 11.46 2.2696 10.741-1.5643-0.13581-0.72366-0.99552-1.6451-1.9105-2.0475-1.0751-0.47292-1.5898-1.2495-1.455-2.1953 0.17654-1.2388 0.85266-1.4972 4.4039-1.683l4.1954-0.21947v11.121l-3.1009 1.4117c-3.6568 1.6648-10.775 1.8708-14.045 0.40666zm36.281 0.42294c-0.70816-0.45075-0.8821-3.6317-0.72963-13.344l0.20018-12.752h4.3778l0.17819 9.5131c0.25185 13.445-0.10124 12.7 6.1355 12.957 4.0484 0.16705 5.3869 0.50456 6.0135 1.5163 0.62312 1.0061 0.55767 1.4602-0.28837 2.0012-1.3276 0.84881-14.582 0.93884-15.887 0.1079zm21.893-0.24085c-0.63486-0.63672-0.89852-4.2529-0.89852-12.323 0-12.463 0.47534-14.239 3.689-13.784 1.7817 0.25223 1.7835 0.26155 2.148 11.229l0.36481 10.977 4.013 0.1897c6.2701 0.29639 7.426 0.71288 7.1613 2.5803-0.21838 1.5402-0.61042 1.6308-7.9044 1.8266-5.3472 0.14352-7.9471-0.0673-8.5732-0.69519zm22.062-0.0375c-0.20846-0.54483-0.28868-6.5766-0.17827-13.404l0.20076-12.413 3.6482-0.23741c10.354-0.67378 15.687 1.9862 15.687 7.824 0 4.4794-2.1911 6.5315-8.0259 7.5166-2.6084 0.44036-5.0709 1.1078-5.4722 1.4832-0.40129 0.37537-0.89379 2.7244-1.0944 5.2201-0.34602 4.3037-0.46846 4.5495-2.3754 4.7695-1.197 0.13809-2.164-0.16892-2.3896-0.75864zm12.754-15.528c1.5006-1.8135 0.62703-5.0479-1.6588-6.1418-2.957-1.415-5.3828-0.58861-5.9561 2.0292-0.73768 3.3685 0.63314 5.166 3.9398 5.166 1.5496 0 3.1934-0.47117 3.6752-1.0534zm-109.98-80.461c-12.529-27.929-22.779-51.144-22.779-51.59 0-0.56238 3.9852-0.81037 13.023-0.81037h13.023l1.2796 2.8459c0.70375 1.5652 6.2826 14.655 12.398 29.088 6.7429 15.915 11.503 26.242 12.097 26.242 0.58031 0 6.103-11.317 13.57-27.807 6.925-15.294 12.943-28.384 13.372-29.088 0.69747-1.1431 2.1905-1.2806 13.908-1.2806 7.2199 0 13.13 0.24697 13.134 0.54883 4e-3 0.30185-11.063 23.517-24.593 51.59l-24.6 51.041h-11.051zm-236.12 48.891c-0.57867-1.5124-0.57867-98.621 0-100.13 0.37639-0.98375 2.0729-1.1575 11.301-1.1575h10.858l26.714 29.82c14.693 16.401 27.169 29.926 27.726 30.055 0.84811 0.19691 1.0431-4.6077 1.2028-29.637l0.19064-29.872 24.443-0.40127v102.53l-20.044-0.40719-27.929-31.466c-15.361-17.306-28.253-31.576-28.649-31.71-0.46557-0.1578-0.71966 10.608-0.71966 30.492 0 16.905-0.19929 31.257-0.44288 31.893-0.37876 0.98993-2.1632 1.1575-12.326 1.1575-10.162 0-11.947-0.16758-12.326-1.1575zm111.45-0.48898c0.23241-0.90558 10.1-23.874 21.928-51.041l21.506-49.395 14.599-0.19799c13.343-0.18095 14.657-0.0865 15.281 1.0977 1.2615 2.3936 38.785 99.454 38.785 100.32 0 1.2675-25.226 1.2139-26.031-0.0553-0.31907-0.5031-2.0622-4.8663-3.8736-9.696l-3.2935-8.7813h-45.115l-3.4668 8.4154c-1.9068 4.6285-3.825 8.9917-4.2627 9.696-0.70904 1.1409-2.197 1.2806-13.637 1.2806h-12.841l0.42257-1.6465zm71.553-36.322c0.44828-0.72746-12.312-35.827-13.434-36.952-0.39493-0.39609-0.92085-0.51677-1.1687-0.26818-0.72817 0.73031-14.896 35.817-14.896 36.89 0 0.78399 2.8912 0.97842 14.55 0.97842 8.0022 0 14.729-0.29162 14.949-0.64805zm145.61-13.256v-51.224h25.537v102.45h-25.537zm-264.77-79.551c-3.1691-1.5658-5.1899-4.9241-5.1933-8.6308-2e-3 -2.24 0.85533-4.3249 3.6406-8.8521 5.813-9.4486 5.8778-9.4956 13.387-9.7032 7.4129-0.2049 12.885 0.45949 12.885 1.5644 0 0.96278-8.2133 17.259-10.648 21.128-3.3793 5.3689-8.7972 7.0993-14.07 4.4938zm62.966-2.6726c-2.6768-2.7717-5.1065-6.5628-8.2753-12.912-2.4672-4.9434-4.374-9.3246-4.2373-9.736 0.15761-0.47424 3.7059-0.66418 9.6933-0.51887 5.1946 0.12607 11.743 0.28219 14.552 0.34694 13.782 0.31764 14.228 0.36501 14.228 1.5106 0 1.5583-7.0203 15.44-9.7233 19.226-2.8412 3.98-6.0993 6.0066-9.6568 6.0066-2.4169 0-3.2991-0.52607-6.5805-3.9238zm32.36 2.4851c-4.6569-3.6739-4.5486-9.7932 0.30622-17.303 4.772-7.3814 4.516-7.2572 14.662-7.1108 4.8976 0.0706 9.0592 0.46018 9.4856 0.88784 0.52653 0.52809-0.4137 3.1825-3.0634 8.6484-4.1505 8.5618-7.7462 13.527-11.03 15.23-3.0241 1.5684-8.1466 1.3942-10.361-0.35245zm65.26-0.61146c-2.0236-1.8959-11.829-20.286-11.829-22.185 0-1.2641 18.504-0.48077 20.104 0.85106 2.1013 1.749 6.6766 9.0195 7.2097 11.457 0.72954 3.335-1.6239 8.334-4.871 10.347-3.7065 2.2974-7.8563 2.1139-10.614-0.46953zm57.556-0.29776c-3.8871-2.0946-4.8304-4.5081-4.6121-11.8 0.29306-9.7872-0.31075-9.1384 8.5706-9.2099 8.7385-0.0703 7.9472-0.83785 8.7359 8.4727 0.48576 5.7342-0.42621 9.0632-3.1493 11.496-1.9236 1.7184-7.217 2.296-9.5452 1.0414zm-38.673-18.015c-1.2288-2.3027-0.96414-3.0538 1.076-3.0538 1.6032 0 1.8017 0.23739 1.3772 1.6465-0.77379 2.5687-1.5852 3.0341-2.4533 1.4073zm59.992-78.432c-1.7294-0.69884-3.5592-3.486-2.793-4.2543 0.26061-0.26137 1.026 0.22571 1.7008 1.0824 2.3822 3.0243 7.3624 3.109 8.9402 0.15215 1.0833-2.0302-0.66183-3.7155-5.1596-4.9826-4.2096-1.1859-5.1074-1.961-5.1074-4.4089 0-2.7765 2.0894-4.4145 5.6312-4.4145 2.992 0 6.9475 2.2577 5.8649 3.3475-0.29851 0.30049-1.1452-4.61e-4 -1.8815-0.66878-1.7064-1.5488-6.2133-1.5827-7.4765-0.05613-1.5063 1.8203 0.0321 3.4303 4.7239 4.9438 2.9473 0.95074 4.4087 1.8644 4.9746 3.11 2.0654 4.5463-3.8409 8.4029-9.4176 6.1494zm15.092-8.3671c0-6.8769 0.1966-8.4586 1.0514-8.4586 1.3942 0 1.8566 0.83864 4.0349 7.3178 2.5308 7.5276 3.5095 7.4443 6.225-0.53001 1.4458-4.2457 2.5577-6.4219 3.2813-6.4219 0.89576 0 1.1319 1.4945 1.3007 8.2325 0.13302 5.3081-0.0614 8.2325-0.54722 8.2325-0.45077 0-0.75352-2.1878-0.75352-5.4451 0-8.2601-1.6641-7.8634-4.4236 1.0545-1.3705 4.4292-3.1426 5.5959-3.9003 2.568-0.97489-3.8957-3.4788-9.8858-4.1323-9.8858-0.37246 0-0.6772 2.4503-0.6772 5.4451 0 2.9948-0.32834 5.6486-0.72963 5.8974-0.47035 0.29154-0.72963-2.5536-0.72963-8.0063z" fill="#0d99d3" />
    <path d="m315.63 281.69c-12.529-27.929-22.779-51.144-22.779-51.59 0-0.56238 3.9852-0.81037 13.023-0.81037h13.023l1.2796 2.8459c0.70375 1.5652 6.2826 14.655 12.398 29.088 6.7429 15.915 11.503 26.242 12.097 26.242 0.58031 0 6.103-11.317 13.57-27.807 6.925-15.294 12.943-28.384 13.372-29.088 0.69747-1.1431 2.1905-1.2806 13.908-1.2806 7.2199 0 13.13 0.24697 13.134 0.54883 4e-3 0.30185-11.063 23.517-24.593 51.59l-24.6 51.041h-11.051zm-236.12 48.891c-0.57867-1.5124-0.57867-98.621 0-100.13 0.37639-0.98375 2.0729-1.1575 11.301-1.1575h10.858l26.714 29.82c14.693 16.401 27.169 29.926 27.726 30.055 0.84811 0.19691 1.0431-4.6077 1.2028-29.637l0.19064-29.872 24.443-0.40127v102.53l-20.044-0.40719-27.929-31.466c-15.361-17.306-28.253-31.576-28.649-31.71-0.46557-0.1578-0.71966 10.608-0.71966 30.492 0 16.905-0.19929 31.257-0.44288 31.893-0.37876 0.98993-2.1632 1.1575-12.326 1.1575-10.162 0-11.947-0.16758-12.326-1.1575zm111.45-0.48898c0.23241-0.90558 10.1-23.874 21.928-51.041l21.506-49.395 14.599-0.19799c13.343-0.18095 14.657-0.0865 15.281 1.0977 1.2615 2.3936 38.785 99.454 38.785 100.32 0 1.2675-25.226 1.2139-26.031-0.0553-0.31907-0.5031-2.0622-4.8663-3.8736-9.696l-3.2935-8.7813h-45.115l-3.4668 8.4154c-1.9068 4.6285-3.825 8.9917-4.2627 9.696-0.70904 1.1409-2.197 1.2806-13.637 1.2806h-12.841l0.42257-1.6465zm71.553-36.322c0.44828-0.72746-12.312-35.827-13.434-36.952-0.39493-0.39609-0.92085-0.51677-1.1687-0.26818-0.72817 0.73031-14.896 35.817-14.896 36.89 0 0.78399 2.8912 0.97842 14.55 0.97842 8.0022 0 14.729-0.29162 14.949-0.64805zm145.61-13.256v-51.224h25.537v102.45h-25.537zm-25.307-177.09c-1.7294-0.69884-3.5592-3.486-2.793-4.2543 0.26061-0.26137 1.026 0.22571 1.7008 1.0824 2.3822 3.0243 7.3624 3.109 8.9402 0.15215 1.0833-2.0302-0.66183-3.7155-5.1596-4.9826-4.2096-1.1859-5.1074-1.961-5.1074-4.4089 0-2.7765 2.0894-4.4145 5.6312-4.4145 2.992 0 6.9475 2.2577 5.8649 3.3475-0.29851 0.30049-1.1452-4.61e-4 -1.8815-0.66878-1.7064-1.5488-6.2133-1.5827-7.4765-0.05613-1.5063 1.8203 0.0321 3.4303 4.7239 4.9438 2.9473 0.95074 4.4087 1.8644 4.9746 3.11 2.0654 4.5463-3.8409 8.4029-9.4176 6.1494zm15.092-8.3671c0-6.8769 0.1966-8.4586 1.0514-8.4586 1.3942 0 1.8566 0.83864 4.0349 7.3178 2.5308 7.5276 3.5095 7.4443 6.225-0.53001 1.4458-4.2457 2.5577-6.4219 3.2813-6.4219 0.89576 0 1.1319 1.4945 1.3007 8.2325 0.13302 5.3081-0.0614 8.2325-0.54722 8.2325-0.45077 0-0.75352-2.1878-0.75352-5.4451 0-8.2601-1.6641-7.8634-4.4236 1.0545-1.3705 4.4292-3.1426 5.5959-3.9003 2.568-0.97489-3.8957-3.4788-9.8858-4.1323-9.8858-0.37246 0-0.6772 2.4503-0.6772 5.4451 0 2.9948-0.32834 5.6486-0.72963 5.8974-0.47035 0.29154-0.72963-2.5536-0.72963-8.0063z" fill="#52608f" />
    <path d="m316.49 281.5c-12.4-27.633-22.657-50.527-22.794-50.876-0.13697-0.34916 5.3942-0.5446 12.292-0.43432l12.541 0.20051 12.201 28.736c6.7107 15.805 12.591 29.127 13.068 29.606 0.66952 0.6715 1.0993 0.62668 1.8871-0.19679 0.56109-0.58647 6.8445-13.991 13.963-29.788l12.943-28.722h12.298c7.205 0 12.298 0.2854 12.298 0.68912 0 0.37902-10.881 23.265-24.179 50.858l-24.179 50.169h-9.7948zm-235.96-0.98315v-50.493h20.371l2.7655 2.9867c1.521 1.6427 13.766 15.226 27.212 30.186s24.937 27.199 25.537 27.199c0.94385 0 1.1395-4.0335 1.4553-30.003l0.36481-30.003 22.983-0.40306v101.02l-8.938-0.0112c-4.9159-6e-3 -9.2953-0.25314-9.732-0.54883-0.43673-0.29571-13.212-14.533-28.391-31.638-15.178-17.105-28.079-31.215-28.669-31.355-0.58959-0.14022-1.3526 0.18908-1.6955 0.73177-0.34291 0.5427-0.62851 14.9-0.63465 31.904l-0.0112 30.918h-22.618zm110.9 50.301c0-0.10523 9.8107-22.745 21.801-50.31l21.801-50.118 27.969-0.39773 1.3646 3.126c0.96723 2.2157 31.295 80.077 37.773 96.976 0.27205 0.70965-2.4252 0.91472-12.031 0.91472h-12.382l-3.4744-9.566c-2.8453-7.834-3.7968-9.6889-5.2547-10.245-2.2702-0.86567-41.156-0.89456-43.409-0.0323-1.3009 0.49796-2.5859 2.8529-5.5903 10.245l-3.9012 9.5983h-12.333c-6.7832 0-12.333-0.0861-12.333-0.19132zm70.592-35.395c0.90291-0.24268 1.6361-0.97911 1.6293-1.6365-7e-3 -0.65739-3.0876-9.5924-6.8464-19.856-6.8002-18.568-8.1148-20.954-9.8003-17.79-0.57948 1.0879-12.573 30.239-14.761 35.876-0.44625 1.15-0.30378 1.9482 0.48983 2.7442 0.92445 0.92716 3.4263 1.1207 14.383 1.1124 7.295-6e-3 14.002-0.20856 14.905-0.45124zm146.84-14.906v-50.493h24.078v100.99h-24.078zm-10.215-192.13c0-0.62747 0.32833-0.93733 0.72963-0.68859 0.40129 0.24874 0.72963 0.76213 0.72963 1.1409 0 0.37872-0.32834 0.68859-0.72963 0.68859-0.4013 0-0.72963-0.51338-0.72963-1.1409zm13.133 0.40908c0-0.40248 0.34771-0.73178 0.77269-0.73178s0.56977 0.3293 0.32175 0.73178c-0.24801 0.40248-0.59573 0.73178-0.77269 0.73178-0.17697 0-0.32175-0.3293-0.32175-0.73178z" fill="#2c3e7b" />
  </g>
</svg>